<?xml version="1.0" encoding="UTF-8" standalone="no"?>
<svg
   xmlns:dc="http://purl.org/dc/elements/1.1/"
   xmlns:cc="http://creativecommons.org/ns#"
   xmlns:rdf="http://www.w3.org/1999/02/22-rdf-syntax-ns#"
   xmlns:svg="http://www.w3.org/2000/svg"
   xmlns="http://www.w3.org/2000/svg"
   xmlns:sodipodi="http://sodipodi.sourceforge.net/DTD/sodipodi-0.dtd"
   xmlns:inkscape="http://www.inkscape.org/namespaces/inkscape"
   width="120.25mm"
   height="138.85mm"
   version="1.1"
   viewBox="0 0 120.25 138.85"
   id="svg877"
   sodipodi:docname="coffeeLogo.svg"
   inkscape:version="0.92.4 (5da689c313, 2019-01-14)">
  <defs
     id="defs881" />
  <sodipodi:namedview
     pagecolor="#ffffff"
     bordercolor="#666666"
     borderopacity="1"
     objecttolerance="10"
     gridtolerance="10"
     guidetolerance="10"
     inkscape:pageopacity="0"
     inkscape:pageshadow="2"
     inkscape:window-width="1920"
     inkscape:window-height="1001"
     id="namedview879"
     showgrid="false"
     inkscape:zoom="1.9033873"
     inkscape:cx="227.24409"
     inkscape:cy="262.39371"
     inkscape:window-x="-9"
     inkscape:window-y="-9"
     inkscape:window-maximized="1"
     inkscape:current-layer="svg877" />
  <metadata
     id="metadata815">
    <rdf:RDF>
      <cc:Work
         rdf:about="">
        <dc:format>image/svg+xml</dc:format>
        <dc:type
           rdf:resource="http://purl.org/dc/dcmitype/StillImage" />
        <dc:title />
      </cc:Work>
    </rdf:RDF>
  </metadata>
  <g
     transform="translate(-43.362 -53.363)"
     id="g823"
     stroke-width=".26458">
    <path
       d="m103.49 192.22-60.126-34.714-2e-6 -69.427 60.126-34.714 60.126 34.714v69.427z"
       id="path817"
       fill="#f40" />
    <path
       transform="matrix(.88669 0 0 .8972 11.726 12.623)"
       d="m103.49 192.22-60.126-34.714-2e-6 -69.427 60.126-34.714 60.126 34.714v69.427z"
       id="path819"
       fill="#fff" />
    <path
       transform="matrix(.82019 0 0 .81206 18.608 23.077)"
       d="m103.49 192.22-60.126-34.714-2e-6 -69.427 60.126-34.714 60.126 34.714v69.427z"
       id="path821"
       fill="#f40" />
  </g>
  <g
     transform="translate(-43.362 -53.363)"
     fill="#ffffff"
     letter-spacing="0px"
     word-spacing="0px"
     id="g841">
    <flowRoot
       transform="scale(.26458)"
       font-family="sans-serif"
       font-size="40px"
       style="line-height:1.25"
       xml:space="preserve"
       id="flowRoot831"><flowRegion
         fill="#ffffff"
         id="flowRegion827"><rect
           x="218.8"
           y="360.32"
           width="344.96"
           height="99.874"
           fill="#fff"
           id="rect825" /></flowRegion><flowPara
         id="flowPara829" /></flowRoot>    <text
       xml:space="preserve"
       style="font-size:3.1749599px;line-height:1.25;font-variant-ligatures:normal;font-variant-caps:normal;font-variant-numeric:normal;font-feature-settings:normal;stroke-width:0.26458001"
       x="59.387901"
       y="114.99729"
       id="text887"><tspan
         sodipodi:role="line"
         x="59.387901"
         y="114.99729"
         id="tspan885"
         style="font-style:normal;font-variant:normal;font-weight:bold;font-stretch:condensed;font-size:22.57777786px;font-family:'Agency FB';-inkscape-font-specification:'Agency FB Bold Condensed';font-variant-ligatures:normal;font-variant-caps:normal;font-variant-numeric:normal;font-feature-settings:normal;text-align:start;writing-mode:lr-tb;text-anchor:start;stroke-width:0.26458001"><tspan
           x="59.387901"
           y="114.99729"
           style="font-style:normal;font-variant:normal;font-weight:bold;font-stretch:condensed;font-size:22.57777786px;font-family:'Agency FB';-inkscape-font-specification:'Agency FB Bold Condensed';font-variant-ligatures:normal;font-variant-caps:normal;font-variant-numeric:normal;font-feature-settings:normal;text-align:start;writing-mode:lr-tb;text-anchor:start;stroke-width:0.26458001"
           id="tspan883">TIPSYBREW</tspan></tspan></text>
  </g>
  <g
     transform="translate(-43.362 -53.363)"
     id="g853">
    <path
       d="m116.08 122.43c-1.7641 0.60884-3.2004 1.1865-4.6678 1.608-4.2307 1.2177-7.1969 3.856-9.1171 7.7745-0.74935 1.5143-1.4519 3.0598-2.3105 4.5117-2.1388 3.575-5.4952 5.2923-9.523 5.7138-0.56201 0.0625-1.405-0.43712-1.7797-0.92108-1.967-2.5915-2.0919-5.4796-0.96791-8.4614 2.7632-7.353 12.333-14.097 20.217-14.206 3.1691-0.0469 5.948 0.90547 8.1492 3.9809zm-16.985 24.541c8.0399 0.0624 16.767-5.948 19.592-13.488 0.98352-2.6071 1.2489-5.2923-0.0312-7.8838-0.24979-0.51518-1.2802-1.1084-1.7797-0.98352-6.3695 1.6392-11.693 4.5273-13.754 11.443-1.0616 3.5282-3.575 5.8231-7.1188 6.9159-1.3426 0.42151-2.7008 0.79619-4.3868 1.2801 2.2637 2.1856 4.8083 2.7008 7.4779 2.7164z"
       fill="#fff"
       stroke-width=".15611"
       id="path843" />
    <flowRoot
       fill="#ffffff"
       font-family="sans-serif"
       font-size="40px"
       letter-spacing="0px"
       word-spacing="0px"
       style="line-height:1.25"
       xml:space="preserve"
       id="flowRoot851"><flowRegion
         fill="#ffffff"
         id="flowRegion847"><rect
           x="276.8"
           y="563.85"
           width="230.39"
           height="47.259"
           fill="#fff"
           id="rect845" /></flowRegion><flowPara
         id="flowPara849" /></flowRoot>  </g>
  <g
     transform="translate(-43.918026,-53.363)"
     id="g863">
    <text
       xml:space="preserve"
       style="font-size:3.1749599px;line-height:1.25;font-variant-ligatures:normal;font-variant-caps:normal;font-variant-numeric:normal;font-feature-settings:normal;stroke-width:0.26458001"
       x="75.916382"
       y="156.89052"
       id="text893"><tspan
         sodipodi:role="line"
         x="75.916382"
         y="156.89052"
         id="tspan891"
         style="font-style:normal;font-variant:normal;font-weight:normal;font-stretch:condensed;font-size:11.28888893px;font-family:'Agency FB';-inkscape-font-specification:'Agency FB Condensed';fill:#ffffff;fill-opacity:1;stroke-width:0.26458001"><tspan
           x="75.916382"
           y="156.89052"
           id="tspan889"
           style="font-style:normal;font-variant:normal;font-weight:normal;font-stretch:condensed;font-size:11.28888893px;font-family:'Agency FB';-inkscape-font-specification:'Agency FB Condensed';fill:#ffffff;fill-opacity:1;stroke-width:0.26458001">pour over robot</tspan></tspan></text>
  </g>
  <g
     transform="translate(-43.362 -53.363)"
     display="none"
     id="g867">
    <path
       d="m107.54 205.17c-2.9898 1.0319-5.424 2.0108-7.911 2.7252-7.1702 2.0638-12.197 6.5352-15.452 13.176-1.27 2.5665-2.4606 5.1858-3.9158 7.6465-3.6248 6.059-9.3133 8.9694-16.14 9.6838-0.9525 0.10584-2.3812-0.74083-3.0162-1.561-3.3338-4.3921-3.5454-9.2869-1.6404-14.34 4.6831-12.462 20.902-23.892 34.264-24.077 5.371-0.0794 10.081 1.5346 13.811 6.7469zm-28.787 41.592c13.626 0.10583 28.416-10.081 33.205-22.86 1.6669-4.4186 2.1167-8.9694-0.0529-13.361-0.42334-0.87313-2.1696-1.8786-3.0163-1.6669-10.795 2.7781-19.817 7.6729-23.31 19.394-1.7992 5.9796-6.059 9.869-12.065 11.721-2.2754 0.71438-4.5773 1.3494-7.4348 2.1696 3.8365 3.7042 8.1492 4.5773 12.674 4.6038z"
       stroke-width=".26458"
       id="path865" />
  </g>
  <g
     transform="translate(-43.362 -53.363)"
     display="none"
     id="g871">
    <path
       d="m80.048 139.98c-4.3656 12.621-3.0427 24.924 3.8365 36.354 3.2279 5.3446 7.9904 8.7842 14.79 8.255 2.1167-0.15875 3.2279-1.0054 3.9423-3.0427 2.9633-8.5196 1.0319-15.981-4.5508-22.781-5.424-6.5881-7.5935-13.996-5.6092-22.463 0.55562-2.4077 0.82021-4.8948 1.2965-7.8846-7.5671 1.1642-11.615 5.5298-13.705 11.562zm36.883 32.808c5.8473-13.467 4.6038-26.379-3.9688-38.365-2.8046-3.9423-6.7204-6.5088-11.668-7.1967-2.2754-0.3175-3.4131 0.15875-3.9952 2.7781-2.4342 10.901-1.7992 20.823 6.5881 29.369 4.4715 4.5773 5.424 10.451 3.9952 16.669-0.44979 1.9844-0.82021 4.0217-1.3494 6.694 5.1859-1.9844 8.4402-5.4504 10.398-9.9483z"
       stroke-width=".26458"
       id="path869" />
  </g>
  <g
     transform="translate(-43.362 -53.363)"
     display="none"
     id="g875">
    <path
       d="m145.64 170.62c-12.806 8.9164-19.103 21.325-18.309 36.989 0.2646 5.4504 2.9898 9.869 8.255 12.144 1.0319 0.44979 2.8311 0.44979 3.7042-0.15875 4.5508-3.175 8.0169-7.329 8.89-12.965 0.5027-3.1221 0.5027-6.4029 0.23813-9.5779-0.68793-8.9165 1.905-16.457 8.599-22.542 1.4817-1.3494 2.6458-3.0162 3.9952-4.6038-4.9742-2.6723-10.583-2.6194-15.372 0.71437zm11.324 48.842c11.298-7.5142 17.092-18.256 17.383-31.75 0.13229-5.8738-1.5346-11.404-6.5881-15.161-0.82021-0.60853-2.8575-0.8202-3.4396-0.26457-7.911 7.3819-13.758 15.69-11.377 27.437 1.4288 7.0644-0.66146 13.123-5.9531 18.045-1.4023 1.2964-2.884 2.5135-5.0006 4.3392 6.2442 1.2435 10.848 0.10583 14.975-2.6458z"
       stroke-width=".26458"
       id="path873" />
  </g>
</svg>
