<?xml version="1.0" encoding="UTF-8" standalone="no"?>
<!-- Created with Inkscape (http://www.inkscape.org/) -->

<svg
   xmlns:dc="http://purl.org/dc/elements/1.1/"
   xmlns:cc="http://creativecommons.org/ns#"
   xmlns:rdf="http://www.w3.org/1999/02/22-rdf-syntax-ns#"
   xmlns:svg="http://www.w3.org/2000/svg"
   xmlns="http://www.w3.org/2000/svg"
   xmlns:sodipodi="http://sodipodi.sourceforge.net/DTD/sodipodi-0.dtd"
   xmlns:inkscape="http://www.inkscape.org/namespaces/inkscape"
   width="210mm"
   height="297mm"
   viewBox="0 0 210 297"
   version="1.1"
   id="svg8"
   inkscape:version="0.92.3 (2405546, 2018-03-11)"
   sodipodi:docname="drawing.svg">
  <defs
     id="defs2" />
  <sodipodi:namedview
     id="base"
     pagecolor="#ffffff"
     bordercolor="#666666"
     borderopacity="1.0"
     inkscape:pageopacity="0.0"
     inkscape:pageshadow="2"
     inkscape:zoom="1.1849519"
     inkscape:cx="488.22467"
     inkscape:cy="641.9052"
     inkscape:document-units="mm"
     inkscape:current-layer="layer4"
     showgrid="false"
     inkscape:window-width="1918"
     inkscape:window-height="1028"
     inkscape:window-x="-7"
     inkscape:window-y="1060"
     inkscape:window-maximized="0" />
  <metadata
     id="metadata5">
    <rdf:RDF>
      <cc:Work
         rdf:about="">
        <dc:format>image/svg+xml</dc:format>
        <dc:type
           rdf:resource="http://purl.org/dc/dcmitype/StillImage" />
        <dc:title></dc:title>
      </cc:Work>
    </rdf:RDF>
  </metadata>
  <g
     inkscape:label="Layer 1"
     inkscape:groupmode="layer"
     id="layer1"
     style="display:inline">
    <path
       sodipodi:type="star"
       id="path3713"
       sodipodi:sides="6"
       sodipodi:cx="103.48772"
       sodipodi:cy="122.79027"
       sodipodi:r1="69.427399"
       sodipodi:r2="34.713699"
       sodipodi:arg1="1.5707963"
       sodipodi:arg2="2.0943951"
       inkscape:flatsided="true"
       inkscape:rounded="0"
       inkscape:randomized="0"
       d="m 103.48772,192.21767 -60.125893,-34.7137 -2e-6,-69.4274 60.125885,-34.713701 60.1259,34.713698 0,69.427403 z"
       inkscape:transform-center-x="1.3037823e-006"
       inkscape:transform-center-y="-1.5469639e-006"
       style="fill:#ff4400;fill-opacity:1;stroke-width:0.26458332" />
    <path
       sodipodi:type="star"
       id="path3713-1"
       sodipodi:sides="6"
       sodipodi:cx="103.48772"
       sodipodi:cy="122.79027"
       sodipodi:r1="69.427399"
       sodipodi:r2="34.713699"
       sodipodi:arg1="1.5707963"
       sodipodi:arg2="2.0943951"
       inkscape:flatsided="true"
       inkscape:rounded="0"
       inkscape:randomized="0"
       d="m 103.48772,192.21767 -60.125893,-34.7137 -2e-6,-69.4274 60.125885,-34.713701 60.1259,34.713698 0,69.427403 z"
       inkscape:transform-center-x="1.2497567e-006"
       inkscape:transform-center-y="-1.9989407e-006"
       style="fill:#ffffff;fill-opacity:1;stroke-width:0.26458332"
       transform="matrix(0.88669322,0,0,0.89720075,11.72586,12.622747)" />
    <path
       sodipodi:type="star"
       id="path3713-7"
       sodipodi:sides="6"
       sodipodi:cx="103.48772"
       sodipodi:cy="122.79027"
       sodipodi:r1="69.427399"
       sodipodi:r2="34.713699"
       sodipodi:arg1="1.5707963"
       sodipodi:arg2="2.0943951"
       inkscape:flatsided="true"
       inkscape:rounded="0"
       inkscape:randomized="0"
       d="m 103.48772,192.21767 -60.125893,-34.7137 -2e-6,-69.4274 60.125885,-34.713701 60.1259,34.713698 0,69.427403 z"
       inkscape:transform-center-y="-1.1431658e-006"
       style="fill:#ff4400;fill-opacity:1;stroke-width:0.26458332"
       transform="matrix(0.8201908,0,0,0.81206357,18.608043,23.076765)"
       inkscape:transform-center-x="1.8489056e-006" />
  </g>
  <g
     inkscape:groupmode="layer"
     id="layer2"
     inkscape:label="Text"
     style="display:inline">
    <flowRoot
       xml:space="preserve"
       id="flowRoot4548"
       style="font-style:normal;font-weight:normal;font-size:40px;line-height:1.25;font-family:sans-serif;letter-spacing:0px;word-spacing:0px;fill:#ffffff;fill-opacity:1;stroke:none"
       transform="scale(0.26458333)"><flowRegion
         id="flowRegion4550"
         style="fill:#ffffff;fill-opacity:1"><rect
           id="rect4552"
           width="344.95938"
           height="99.873955"
           x="218.80281"
           y="360.32373"
           style="fill:#ffffff;fill-opacity:1" /></flowRegion><flowPara
         id="flowPara4554"></flowPara></flowRoot>    <flowRoot
       xml:space="preserve"
       id="flowRoot4556"
       style="font-style:normal;font-variant:normal;font-weight:normal;font-stretch:condensed;font-size:85.33333588px;line-height:1.25;font-family:'Agency FB';-inkscape-font-specification:'Agency FB, Condensed';font-variant-ligatures:normal;font-variant-caps:normal;font-variant-numeric:normal;font-feature-settings:normal;text-align:center;letter-spacing:0px;word-spacing:0px;writing-mode:lr-tb;text-anchor:middle;fill:#ffffff;fill-opacity:1;stroke:none"
       transform="matrix(0.26458333,0,0,0.26458333,-0.52154573,-0.69539431)"><flowRegion
         id="flowRegion4558"
         style="font-style:normal;font-variant:normal;font-weight:normal;font-stretch:condensed;font-size:85.33333588px;font-family:'Agency FB';-inkscape-font-specification:'Agency FB, Condensed';font-variant-ligatures:normal;font-variant-caps:normal;font-variant-numeric:normal;font-feature-settings:normal;text-align:center;writing-mode:lr-tb;text-anchor:middle;fill:#ffffff;fill-opacity:1"><rect
           id="rect4560"
           width="372.15509"
           height="125.64964"
           x="204.7484"
           y="357.54535"
           style="font-style:normal;font-variant:normal;font-weight:normal;font-stretch:condensed;font-size:85.33333588px;font-family:'Agency FB';-inkscape-font-specification:'Agency FB, Condensed';font-variant-ligatures:normal;font-variant-caps:normal;font-variant-numeric:normal;font-feature-settings:normal;text-align:center;writing-mode:lr-tb;text-anchor:middle;fill:#ffffff;fill-opacity:1" /></flowRegion><flowPara
         id="flowPara4562"
         style="font-style:normal;font-variant:normal;font-weight:bold;font-stretch:condensed;font-size:85.33333588px;font-family:'Agency FB';-inkscape-font-specification:'Agency FB, Bold Condensed';font-variant-ligatures:normal;font-variant-caps:normal;font-variant-numeric:normal;font-feature-settings:normal;text-align:center;writing-mode:lr-tb;text-anchor:middle">TIPSYBREW</flowPara></flowRoot>  </g>
  <g
     inkscape:groupmode="layer"
     id="layer3"
     inkscape:label="Icon"
     style="display:inline">
    <path
       sodipodi:nodetypes="cccccccccccccccccc"
       style="display:inline;fill:#ffffff;fill-opacity:1;stroke-width:0.15611444"
       inkscape:connector-curvature="0"
       id="path4606-2"
       d="m 116.08365,122.43354 c -1.76409,0.60884 -3.20035,1.18647 -4.66782,1.60797 -4.23071,1.21769 -7.19688,3.85603 -9.11709,7.7745 -0.74935,1.51432 -1.45186,3.05985 -2.310489,4.51171 -2.138768,3.57502 -5.495228,5.29228 -9.522981,5.71379 -0.562012,0.0625 -1.40503,-0.43712 -1.779705,-0.92108 -1.967042,-2.5915 -2.091934,-5.47961 -0.96791,-8.4614 2.763226,-7.35298 12.333045,-14.09713 20.216815,-14.20642 3.16913,-0.0469 5.94797,0.90547 8.14918,3.98093 z m -16.985251,24.54119 c 8.039891,0.0624 16.766691,-5.94797 19.592371,-13.48829 0.98352,-2.60712 1.24891,-5.29228 -0.0312,-7.88378 -0.24979,-0.51518 -1.28015,-1.10841 -1.77972,-0.98352 -6.36947,1.6392 -11.69297,4.52732 -13.75368,11.44318 -1.06158,3.52819 -3.575022,5.82307 -7.11882,6.91587 -1.342585,0.42151 -2.700781,0.79619 -4.386817,1.28014 2.26366,2.1856 4.808326,2.70078 7.477883,2.7164 z" />
    <flowRoot
       xml:space="preserve"
       id="flowRoot4633"
       style="fill:#ffffff;fill-opacity:1;stroke:none;font-family:sans-serif;font-style:normal;font-weight:normal;font-size:40px;line-height:1.25;letter-spacing:0px;word-spacing:0px;"><flowRegion
         id="flowRegion4635"
         style="fill:#ffffff;fill-opacity:1;"><rect
           id="rect4637"
           width="230.3891"
           height="47.259304"
           x="276.80447"
           y="563.84723"
           style="fill:#ffffff;fill-opacity:1;" /></flowRegion><flowPara
         id="flowPara4639"></flowPara></flowRoot>  </g>
  <g
     inkscape:groupmode="layer"
     id="layer4"
     inkscape:label="subtitle">
    <flowRoot
       xml:space="preserve"
       id="flowRoot4641"
       style="display:inline;font-style:normal;font-variant:normal;font-weight:normal;font-stretch:condensed;font-size:40px;line-height:1.25;font-family:'Agency FB';-inkscape-font-specification:'Agency FB, Condensed';font-variant-ligatures:normal;font-variant-caps:normal;font-variant-numeric:normal;font-feature-settings:normal;text-align:center;letter-spacing:0px;word-spacing:0px;writing-mode:lr-tb;text-anchor:middle;fill:#ffffff;fill-opacity:1;stroke:none"
       transform="scale(0.26458333)"><flowRegion
         id="flowRegion4643"
         style="font-style:normal;font-variant:normal;font-weight:normal;font-stretch:condensed;font-size:40px;font-family:'Agency FB';-inkscape-font-specification:'Agency FB, Condensed';font-variant-ligatures:normal;font-variant-caps:normal;font-variant-numeric:normal;font-feature-settings:normal;text-align:center;writing-mode:lr-tb;text-anchor:middle;fill:#ffffff;fill-opacity:1"><rect
           id="rect4645"
           width="224.48169"
           height="59.074127"
           x="280.18015"
           y="554.56415"
           style="font-style:normal;font-variant:normal;font-weight:normal;font-stretch:condensed;font-size:40px;font-family:'Agency FB';-inkscape-font-specification:'Agency FB, Condensed';font-variant-ligatures:normal;font-variant-caps:normal;font-variant-numeric:normal;font-feature-settings:normal;text-align:center;writing-mode:lr-tb;text-anchor:middle;fill:#ffffff;fill-opacity:1" /></flowRegion><flowPara
         id="flowPara4647">pour over robot</flowPara></flowRoot>  </g>
  <g
     inkscape:label="bean 1"
     id="g4608"
     inkscape:groupmode="layer"
     style="display:none">
    <path
       sodipodi:nodetypes="cccccccccccccccccc"
       style="stroke-width:0.26458332"
       inkscape:connector-curvature="0"
       id="path4606"
       d="m 107.53804,205.17358 c -2.98979,1.03187 -5.42396,2.01084 -7.91104,2.7252 -7.170209,2.06375 -12.197292,6.53522 -15.451667,13.17625 -1.27,2.56647 -2.460625,5.18585 -3.915833,7.64646 -3.624792,6.05896 -9.313333,8.96938 -16.139584,9.68375 -0.9525,0.10584 -2.38125,-0.74083 -3.01625,-1.56104 -3.33375,-4.39208 -3.545417,-9.28687 -1.640417,-14.34042 4.683125,-12.46186 20.902084,-23.89186 34.263542,-24.07708 5.371039,-0.0794 10.080629,1.53458 13.811249,6.74688 z m -28.786665,41.5925 c 13.626041,0.10583 28.416245,-10.08063 33.205225,-22.86 1.66688,-4.41855 2.11666,-8.96938 -0.0529,-13.36145 -0.42334,-0.87313 -2.1696,-1.87855 -3.01627,-1.66688 -10.795002,2.77813 -19.817294,7.67292 -23.309794,19.39395 -1.799167,5.97958 -6.058958,9.86896 -12.065,11.72104 -2.275417,0.71438 -4.577292,1.34938 -7.434793,2.16959 3.83646,3.70416 8.149168,4.57729 12.673543,4.60375 z" />
  </g>
  <g
     inkscape:groupmode="layer"
     id="g4616"
     inkscape:label="bean 2"
     style="display:none">
    <path
       d="m 80.047833,139.98024 c -4.365625,12.62063 -3.042708,24.92376 3.836459,36.35376 3.227916,5.34458 7.990416,8.78417 14.790208,8.255 2.11667,-0.15875 3.22792,-1.00542 3.94229,-3.04272 2.96333,-8.51958 1.03188,-15.98083 -4.550832,-22.78061 -5.423958,-6.58814 -7.593542,-13.99647 -5.609167,-22.46313 0.555625,-2.40771 0.820209,-4.8948 1.296459,-7.88459 -7.567084,1.16417 -11.615208,5.52979 -13.705417,11.56229 z m 36.882927,32.80834 c 5.8473,-13.4673 4.60375,-26.37896 -3.96875,-38.36459 -2.80458,-3.94229 -6.72043,-6.50875 -11.66814,-7.19666 -2.275409,-0.3175 -3.41312,0.15875 -3.995204,2.77812 -2.434166,10.90084 -1.799166,20.82271 6.588124,29.36875 4.47146,4.5773 5.42396,10.45105 3.99521,16.66875 -0.44979,1.98438 -0.82021,4.02168 -1.34938,6.69397 5.18586,-1.98439 8.44023,-5.45042 10.39814,-9.94834 z"
       id="path4614"
       inkscape:connector-curvature="0"
       style="stroke-width:0.26458332"
       sodipodi:nodetypes="cccccccccccccccc" />
  </g>
  <g
     inkscape:groupmode="layer"
     id="g4612"
     inkscape:label="bean 3"
     style="display:none">
    <path
       d="m 145.63806,170.619 c -12.80583,8.91645 -19.10293,21.32542 -18.30918,36.98875 0.2646,5.45042 2.98981,9.86895 8.255,12.14438 1.03188,0.44979 2.83106,0.44979 3.70418,-0.15875 4.55082,-3.175 8.01688,-7.32896 8.89,-12.9646 0.5027,-3.12208 0.5027,-6.4029 0.23813,-9.5779 -0.68793,-8.91646 1.905,-16.4571 8.59895,-22.5425 1.48167,-1.34938 2.64584,-3.01625 3.99521,-4.60375 -4.97416,-2.6723 -10.58334,-2.61938 -15.37229,0.71437 z m 11.32417,48.84208 c 11.29771,-7.51416 17.09208,-18.25625 17.38312,-31.75 0.13229,-5.87375 -1.53458,-11.40355 -6.58812,-15.16063 -0.82021,-0.60853 -2.8575,-0.8202 -3.43959,-0.26457 -7.91104,7.38187 -13.75833,15.68979 -11.37708,27.43729 1.42875,7.06436 -0.66146,13.12333 -5.95312,18.04458 -1.4023,1.29645 -2.88396,2.51353 -5.00063,4.33917 6.24417,1.24353 10.84792,0.10583 14.97542,-2.64584 z"
       id="path4610"
       inkscape:connector-curvature="0"
       style="stroke-width:0.26458332"
       sodipodi:nodetypes="ccccccccccccccccc" />
  </g>
</svg>
