<?xml version="1.0" standalone="no"?>
<!DOCTYPE svg PUBLIC "-//W3C//DTD SVG 20010904//EN"
 "http://www.w3.org/TR/2001/REC-SVG-20010904/DTD/svg10.dtd">
<svg version="1.0" xmlns="http://www.w3.org/2000/svg"
 width="435.000000pt" height="102.000000pt" viewBox="0 0 435.000000 102.000000"
 preserveAspectRatio="xMidYMid meet">
<metadata>
Created by potrace 1.15, written by Peter Selinger 2001-2017
</metadata>
<g transform="translate(0.000000,102.000000) scale(0.100000,-0.100000)"
fill="#000000" stroke="none">
<path d="M624 965 c-13 -13 -27 -38 -30 -55 l-7 -30 -16 32 -16 33 -220 3
c-121 1 -229 0 -241 -2 -31 -8 -44 -48 -44 -139 0 -96 13 -128 57 -140 47 -14
83 -1 95 33 20 59 28 27 28 -115 0 -145 0 -146 -24 -155 -34 -13 -46 -40 -46
-104 0 -88 13 -96 158 -96 147 0 157 7 157 105 0 64 -20 105 -52 105 -10 0
-13 30 -13 146 0 94 4 143 10 139 6 -3 10 -12 10 -19 0 -7 9 -21 20 -31 17
-16 27 -17 65 -8 41 9 45 9 45 -9 0 -10 11 -30 25 -44 23 -23 25 -33 25 -109
0 -79 -1 -84 -27 -103 -24 -18 -28 -27 -27 -70 0 -29 8 -61 17 -76 17 -25 21
-26 122 -26 125 0 135 8 135 103 0 49 -4 62 -26 84 l-26 26 2 226 c3 277 5
253 -26 290 -34 41 -92 44 -130 6z m111 -30 c47 -46 19 -115 -47 -115 -71 0
-107 87 -50 122 38 24 69 22 97 -7z m-185 -105 l0 -80 -50 0 c-48 0 -50 1 -50
29 0 29 -14 41 -51 41 -18 0 -19 -10 -19 -210 l0 -210 36 0 c35 0 35 0 32 -41
l-3 -41 -125 1 c-132 2 -140 5 -140 53 0 24 4 27 38 30 l37 3 3 203 c3 220 2
222 -53 208 -20 -5 -25 -13 -25 -36 0 -29 -1 -30 -50 -30 l-50 0 0 49 c0 27
-3 63 -6 80 l-6 31 241 0 241 0 0 -80z m200 -245 l0 -185 25 0 c23 0 25 -4 25
-42 l0 -43 -107 2 -108 1 -3 35 c-3 31 0 36 27 45 l31 11 0 135 c0 83 -4 136
-10 137 -5 1 -14 3 -20 4 -5 1 -14 3 -20 4 -5 0 -10 19 -10 41 l0 40 85 0 85
0 0 -185z"/>
<path d="M2244 924 c-27 -40 -25 -125 4 -163 20 -28 22 -41 22 -175 0 -141 -1
-146 -25 -172 -38 -41 -33 -148 9 -176 17 -12 279 -9 335 3 63 13 124 57 140
100 7 19 17 42 22 51 15 29 10 135 -8 176 -12 27 -17 67 -17 148 -1 102 -3
113 -28 151 -44 67 -78 77 -270 81 l-166 4 -18 -28z m392 -38 c44 -26 64 -65
64 -125 0 -43 -5 -56 -32 -87 -24 -27 -29 -39 -19 -42 7 -2 28 -17 45 -32 29
-27 31 -32 31 -103 0 -88 -16 -117 -81 -151 -34 -19 -60 -21 -215 -24 l-176
-3 -7 31 c-7 38 -1 50 24 50 10 0 21 4 24 9 4 5 7 101 9 213 l2 203 -27 3
c-25 3 -28 7 -28 43 l0 41 178 -4 c152 -3 181 -6 208 -22z"/>
<path d="M2420 745 l0 -75 39 0 c82 0 121 29 121 89 0 42 -31 61 -102 61 l-58
0 0 -75z"/>
<path d="M2420 494 l0 -86 71 4 c63 3 74 7 95 31 31 37 31 81 -1 112 -21 22
-33 25 -95 25 l-70 0 0 -86z"/>
<path d="M1050 804 c-26 -11 -41 -12 -58 -5 -13 6 -50 11 -82 11 -83 0 -100
-18 -100 -106 0 -61 2 -68 30 -92 l30 -26 0 -168 c0 -155 -1 -167 -19 -173
-28 -9 -44 -58 -39 -117 7 -72 19 -78 147 -78 58 0 111 4 117 8 22 14 34 52
34 104 l0 54 47 12 c65 18 115 72 143 157 19 56 22 83 18 169 -3 88 -7 109
-33 161 -22 45 -40 66 -70 82 -47 27 -114 29 -165 7z m160 -42 c58 -32 75 -79
75 -208 0 -105 -1 -113 -30 -159 -18 -29 -45 -56 -68 -68 -39 -20 -114 -26
-154 -13 -22 7 -23 5 -23 -43 0 -46 2 -51 23 -51 36 0 49 -14 45 -50 l-3 -32
-114 0 c-120 0 -131 4 -131 50 0 17 6 22 24 22 14 0 27 4 30 9 3 5 7 109 8
231 2 237 4 229 -44 244 -13 4 -18 16 -18 41 l0 35 80 0 c74 0 80 -1 80 -21 0
-20 0 -20 28 -1 38 27 50 30 107 31 31 1 63 -6 85 -17z"/>
<path d="M1060 683 c-45 -17 -50 -31 -50 -153 0 -129 1 -130 61 -130 46 0 66
15 84 64 12 32 16 64 13 112 -4 58 -8 70 -32 90 -27 24 -46 28 -76 17z m70
-102 c5 -11 10 -40 10 -65 0 -65 -35 -99 -84 -80 -21 8 -24 149 -3 157 29 12
67 6 77 -12z"/>
<path d="M1455 805 c-84 -30 -134 -122 -120 -220 8 -53 8 -61 -1 -194 -7 -105
-1 -127 37 -147 41 -21 163 -29 216 -15 111 30 167 150 128 275 -15 46 -16 61
-5 86 10 24 15 28 30 20 15 -8 19 -28 24 -122 8 -137 8 -168 0 -281 -7 -103 4
-128 63 -148 21 -7 76 -13 123 -13 125 1 188 38 227 134 16 40 18 76 18 316 0
325 4 314 -105 314 -96 0 -115 -17 -115 -103 0 -54 4 -70 23 -89 30 -33 32
-132 3 -148 -29 -15 -58 -12 -65 6 -3 9 -6 78 -6 155 0 173 -4 179 -109 179
-69 0 -92 -10 -104 -42 -3 -10 -9 -8 -25 5 -47 43 -163 58 -237 32z m188 -41
l47 -16 0 -59 0 -59 -45 0 c-41 0 -45 2 -45 25 0 27 -25 45 -65 45 -40 0 -65
-18 -65 -45 0 -30 26 -48 101 -69 72 -20 106 -47 120 -97 17 -56 -1 -110 -48
-146 -32 -25 -47 -28 -122 -31 -53 -2 -101 2 -126 10 l-40 13 0 65 0 65 45 0
c43 0 45 -2 48 -30 4 -36 16 -45 60 -45 46 0 72 16 72 45 0 29 -27 49 -90 65
-90 24 -114 46 -131 120 -27 119 127 197 284 144z m257 -133 c0 -160 9 -197
50 -206 32 -7 56 3 83 33 15 16 17 35 15 123 -3 96 -4 104 -23 104 -14 0 -21
9 -26 30 -9 52 -4 55 87 55 l84 0 0 -233 c0 -265 -9 -317 -60 -361 -54 -45
-160 -59 -268 -35 l-49 10 -6 66 c-4 37 -6 68 -4 69 1 1 23 4 50 6 l47 6 0
-34 c0 -29 4 -35 28 -40 15 -3 32 -7 39 -9 6 -2 28 1 47 6 44 12 76 67 76 130
l0 42 -23 -21 c-34 -32 -121 -48 -171 -31 -70 25 -81 51 -84 204 -3 128 -5
134 -25 141 -28 9 -37 22 -37 57 l0 27 85 0 85 0 0 -139z"/>
<path d="M2990 805 c-26 -12 -40 -13 -58 -6 -13 6 -50 11 -82 11 -83 0 -100
-18 -100 -105 0 -57 3 -69 25 -89 23 -22 25 -30 25 -115 0 -78 -3 -93 -17 -98
-26 -10 -33 -23 -33 -71 0 -43 13 -81 34 -94 6 -4 61 -8 122 -8 136 0 149 8
149 100 0 63 -21 100 -57 100 -17 0 -19 7 -16 78 3 71 5 77 26 80 14 2 22 -2
22 -11 0 -30 36 -49 79 -42 23 4 42 12 42 18 1 7 5 -22 9 -63 4 -42 12 -85 18
-95 6 -11 13 -32 17 -48 9 -42 74 -101 128 -117 95 -26 229 8 255 65 18 39 15
65 -14 123 l-26 52 26 52 c14 29 26 60 26 70 0 10 5 15 13 12 7 -2 30 -75 52
-166 22 -89 48 -172 58 -185 16 -20 27 -23 81 -23 78 0 93 14 116 106 9 36 21
65 26 64 5 0 16 -30 26 -66 22 -89 38 -104 105 -104 85 0 100 15 122 125 33
167 56 235 86 259 28 22 30 29 30 89 0 94 -14 107 -120 107 -69 0 -85 -3 -100
-20 -25 -28 -31 -106 -11 -153 9 -23 12 -46 8 -58 -6 -15 -15 3 -36 78 -33
117 -45 133 -101 133 -55 0 -67 -15 -100 -125 -15 -49 -31 -94 -36 -100 -15
-16 -10 40 7 74 11 23 15 49 11 84 -7 75 -26 87 -139 87 -83 0 -91 -2 -113
-25 -16 -18 -26 -22 -30 -14 -13 20 -88 49 -129 49 -94 0 -174 -52 -220 -145
l-25 -50 -1 67 c0 55 -4 72 -23 94 -29 34 -104 43 -157 19z m128 -31 c20 -6
22 -12 22 -80 l0 -74 -35 0 c-19 0 -38 -1 -42 -2 -5 -2 -9 12 -11 30 -3 28 -7
32 -32 32 -19 0 -36 -9 -49 -26 -18 -23 -21 -41 -21 -140 l0 -114 41 0 40 0
-3 -41 -3 -41 -120 1 c-106 0 -120 2 -126 18 -15 37 -10 53 20 59 l29 6 4 132
c3 72 1 136 -4 143 -5 6 -19 13 -31 15 -17 2 -23 11 -25 41 l-3 37 80 0 81 0
0 -27 0 -28 18 22 c9 12 28 27 42 32 29 11 94 14 128 5z m377 -8 c89 -38 85
-180 -7 -236 -18 -11 -65 -25 -105 -32 -83 -14 -89 -24 -44 -69 36 -35 92 -39
150 -10 l38 20 16 -35 c10 -19 17 -39 17 -45 0 -22 -85 -49 -155 -49 -136 0
-203 63 -213 200 -2 38 -2 84 2 103 9 50 71 126 120 148 49 22 133 25 181 5z
m305 -36 c0 -36 -2 -40 -25 -40 -14 0 -25 -6 -25 -12 1 -26 58 -242 59 -224 1
11 12 56 25 100 13 45 31 107 40 139 l17 58 51 -3 52 -3 42 -150 c23 -82 43
-148 43 -145 1 3 10 46 22 95 34 156 34 145 11 145 -14 0 -21 9 -26 31 -3 17
-3 35 0 40 3 5 48 9 100 9 l94 0 0 -40 c0 -36 -3 -40 -25 -40 -27 0 -26 3 -70
-185 -14 -60 -30 -127 -36 -147 l-10 -38 -68 0 -68 0 -33 125 c-18 69 -34 125
-35 125 -1 0 -17 -56 -35 -125 l-34 -125 -71 0 -72 0 -33 138 c-51 214 -57
230 -83 234 -18 2 -23 10 -25 41 l-3 37 110 0 111 0 0 -40z"/>
</g>
</svg>
